<?xml version="1.0" encoding="UTF-8"?>
<svg xmlns="http://www.w3.org/2000/svg" viewBox="0 0 207 207">
  <defs>
    <style>
      .cls-1, .cls-2, .cls-3 {
        fill: #000;
      }

      .cls-1, .cls-4, .cls-5, .cls-6, .cls-3, .cls-7, .cls-8, .cls-9, .cls-10, .cls-11, .cls-12, .cls-13 {
        stroke-miterlimit: 10;
      }

      .cls-1, .cls-4, .cls-5, .cls-3, .cls-7, .cls-9, .cls-10, .cls-11 {
        stroke: #000;
      }

      .cls-2, .cls-14, .cls-15 {
        stroke-width: 0px;
      }

      .cls-4 {
        fill: #fff;
      }

      .cls-5 {
        fill: #5c7bff;
      }

      .cls-6 {
        stroke-width: 2px;
      }

      .cls-6, .cls-8, .cls-12, .cls-13 {
        stroke: #b3b3b3;
      }

      .cls-6, .cls-8, .cls-13 {
        fill: none;
      }

      .cls-3, .cls-9 {
        stroke-width: .25px;
      }

      .cls-7 {
        fill: #f4cf7a;
      }

      .cls-14, .cls-10 {
        fill: #b2b2b2;
      }

      .cls-15, .cls-9 {
        fill: #f0f1ff;
      }

      .cls-11 {
        fill: #d5f7a4;
      }

      .cls-12 {
        fill: #b3b3b3;
        stroke-width: .75px;
      }

      .cls-13 {
        stroke-width: .5px;
      }
    </style>
  </defs>
  <g id="Layer_1" data-name="Layer 1">
    <path class="cls-11" d="M56.5,63.5c-2,0-29,20-12,24s114.67-1,114.83,0,9.83-15,0-22.5-4.83-3.5-5.83-5.5,2-58-26-41-68-39-72,0,1,45,1,45Z"/>
    <path class="cls-11" d="M64.5,74.5c1-1,76-2,76,0"/>
    <circle class="cls-4" cx="82" cy="39" r="11.5"/>
    <circle class="cls-4" cx="127.5" cy="39.5" r="11"/>
    <path class="cls-11" d="M55.67,89.08S-8.5,135.5,20.5,167.5s166,4,166,6,23.67-44-27.17-86l-103.67,1.58Z"/>
    <path class="cls-1" d="M105,56.63s-9.77-6.91-16.61-3.23-36.22,10.14-49.06,3.23c-12.84-6.91,4.43,19.06,32.83,10.68,28.4-8.38,32.83-2.77,32.83-2.77v-7.92Z"/>
    <path class="cls-1" d="M105.5,56.89s9.69-7.33,16.47-3.42c6.78,3.91,35.92,10.75,48.66,3.42s-4.39,20.2-32.56,11.32-32.56-2.93-32.56-2.93v-8.39Z"/>
  </g>
  <g id="legs">
    <path class="cls-11" d="M78.5,183.5s-9-111-29-76-31,76.32-30.5,79.66-10.5,5.34-8.5,7.34,8.86-.33,8.43.83,6.57,1.17,5.57,3.17,6-3.15,6-3.15l2.65,5.65,7.35-7.5s9,.05,9,.02,13.67-37.93,13.83-36.48-25.83,42.45,15.17,26.45Z"/>
  </g>
  <g id="Layer_2" data-name="Layer 2">
    <line class="cls-8" x1="19.5" y1="178.5" x2="18.5" y2="179.5"/>
    <line class="cls-8" x1="61.5" y1="119.5" x2="62.5" y2="118.5"/>
    <path class="cls-5" d="M69.5,142.5c-2,4,2,8,3,9s17-2,23,3-20.14,12.52-25,14.17c-26,8.83-29,28.83-42,29.83S2.5,180.5,3.5,164.5s15-15,17-16c0,0,22-18,23-23,0,0,4-17,15-9s3,15,3,15"/>
    <path class="cls-1" d="M73,153.94s23.2-3.11,20.35,1.72-24.85,9.83-25.85,11.83-10,4-13,7l-7,7s1-7-5-4l-10,8,.75-7.55c.16-1.56.98-2.97,2.26-3.87l4.99-5.58s18.87-24.14,27-19"/>
    <path class="cls-7" d="M54.5,136.5c-.51-2.78,117-78,117-74,0,0-2-3,3-5s23.67-6,24.83-7,8.17,10,2.17,11-10-1.67-9.5-.83-4.5,5.83-12.5,7.83-9.17,4.85-9.17,4.85l-107.83,74.15s-6,0-8-11Z"/>
    <path class="cls-10" d="M53,138.27c.63.78,7.49,10.82,5.22,10.59s-6.63-8.61-6.92-9.7.8-1.98,1.7-.89Z"/>
    <path class="cls-14" d="M17.37,164.14c1-.07,11.1-7.2,11.29-7.51s7.13,9.69,7.13,9.69l-11.67,8.37-6.75-10.55Z"/>
    <path class="cls-2" d="M26.62,159.45c-.82,1.68-.96,11.47,1.22,11.32s.33-14.48-1.22-11.32Z"/>
    <path class="cls-15" d="M19.15,166.49c1.6.28,2.07-.8,2.07-.8,0,0,5.43,7.23,4.34,7.31s-1.74,1.22-1.74,1.22l-4.16-7.37"/>
    <path class="cls-15" d="M42,178.55c-1.43.67-12.95,12.56-12.48,12.92s-.66,4.68,3.05,2.88,14.21-12.55,14.21-12.55c0,0,1.27-6.06-4.77-3.25Z"/>
    <circle class="cls-9" cx="32.92" cy="191.2" r="1.5"/>
    <circle class="cls-9" cx="39.33" cy="185.25" r="1.5"/>
    <circle class="cls-3" cx="42.83" cy="182.46" r=".5"/>
    <line class="cls-8" x1="171.5" y1="62.5" x2="175.5" y2="69.5"/>
    <circle class="cls-12" cx="176" cy="61" r="1.5"/>
    <circle class="cls-12" cx="184" cy="57" r="1.5"/>
    <circle class="cls-12" cx="191" cy="55" r="1.5"/>
    <circle class="cls-12" cx="197" cy="53" r="1.5"/>
    <line class="cls-6" x1="176" y1="60" x2="176" y2="55"/>
    <line class="cls-6" x1="184" y1="56" x2="184" y2="51"/>
    <line class="cls-6" x1="191" y1="54" x2="191" y2="50"/>
    <line class="cls-6" x1="197" y1="52" x2="197" y2="46"/>
    <line class="cls-6" x1="194" y1="47" x2="200" y2="44"/>
    <line class="cls-6" x1="189" y1="50" x2="193" y2="49"/>
    <line class="cls-6" x1="180" y1="52" x2="186" y2="51"/>
    <line class="cls-6" x1="172" y1="56" x2="178" y2="53"/>
    <line class="cls-13" x1="176.44" y1="61.03" x2="21" y2="164.25"/>
    <line class="cls-13" x1="184.5" y1="57.5" x2="24.1" y2="165.4"/>
    <line class="cls-13" x1="191.5" y1="55.5" x2="25.2" y2="168.62"/>
    <line class="cls-13" x1="197.5" y1="53.5" x2="26.5" y2="170.5"/>
  </g>
  <g id="arms">
    <path class="cls-11" d="M50.9,101.78c-1.4,1.72-32.4,4.72-15.4,33.72,0,0,8,10,5,8s4,10,0,6-1.31,6.31-2.66,3.15-3.23-2.14-3.23-2.14c-41.89-38.99,13.39-55.32,13.39-55.32"/>
    <path class="cls-11" d="M177.5,106.48c0,1.02-31,10.02-38-2.98s-11-19-8-15.5,5.33,5.17,5.67,4.83-1.67-9.33-1.67-8.33,3,5,4,6-1.97-9.69-1.49-9.34,3.32,7.34,3.32,7.34l1.25.58-1.25-8.42c12.83,38.17,26.17,14.83,25.47,13.54"/>
    <path class="cls-11" d="M145.5,140.5c1,1,24-69,36-38s15,91,17,93,5.8,4,5.4,6.5-18.4-8.5-17.4-6.5,7,4.74,6,6.87-20-4.87-19-3.37-1,8.5-2,6.5-7.76-8.83-7.76-8.83c0,0-1.4-16.03-2.22-26.6-.43-5.52-.69-9.55-.52-9.04.5,1.48,1.5-27.52,1.5-27.52"/>
    <circle class="cls-1" cx="82" cy="39" r="8.5"/>
    <circle class="cls-1" cx="128" cy="39" r="8.5"/>
  </g>
</svg>