<?xml version="1.0" encoding="UTF-8"?>
<svg xmlns="http://www.w3.org/2000/svg" viewBox="0 0 207 207">
  <defs>
    <style>
      .cls-1, .cls-2, .cls-3, .cls-4, .cls-5, .cls-6, .cls-7, .cls-8, .cls-9, .cls-10 {
        stroke-miterlimit: 10;
      }

      .cls-1, .cls-2, .cls-3, .cls-4, .cls-5, .cls-9 {
        stroke: #000;
      }

      .cls-1, .cls-6 {
        fill: #000;
      }

      .cls-2 {
        fill: #fff;
      }

      .cls-3 {
        fill: #fff8e1;
      }

      .cls-4, .cls-8 {
        fill: #a2f9a4;
      }

      .cls-5, .cls-7 {
        fill: none;
      }

      .cls-6, .cls-7, .cls-10 {
        stroke: #b7b7b7;
      }

      .cls-11 {
        fill: #fff471;
        stroke-width: 0px;
      }

      .cls-7, .cls-8 {
        stroke-width: 3px;
      }

      .cls-8 {
        stroke: #bc985e;
      }

      .cls-9 {
        fill: #4c4c4c;
      }

      .cls-10 {
        fill: #f99;
      }
    </style>
  </defs>
  <g id="Layer_1" data-name="Layer 1">
    <path class="cls-4" d="M63.62,93.38s-44.31,40.74-24.28,68.82,114.63,3.51,114.63,5.26,16.34-38.61-18.76-75.46l-71.59,1.38Z"/>
  </g>
  <g id="legs">
    <path class="cls-4" d="M79.38,176.24s-6.22-97.4-20.03-66.69-21.41,66.97-21.06,69.9-7.25,4.69-5.87,6.44,6.12-.29,5.82.73,4.54,1.02,3.85,2.78,4.14-2.77,4.14-2.77l1.83,4.96,5.08-6.58s6.22.04,6.22.02,9.44-33.29,9.55-32.01-17.84,37.25,10.47,23.21Z"/>
  </g>
  <g id="arms">
    <path class="cls-4" d="M57.19,99.98s-17.87-10.48-18.28-27.48-4.78-17.5-4.78-17.5v11l-8.13-8.5,3.5,12-9.72-7,5.11,10s18.62,37,23.62,36.5"/>
    <path class="cls-4" d="M138.61,102.98s17.75-10.48,18.15-27.48c.41-17,4.74-17.5,4.74-17.5v11l8.08-8.5-3.47,12,9.65-7-5.07,10s-18.49,37-23.45,36.5"/>
    <path class="cls-4" d="M125.65,138.51c.69.88,16.57-60.55,24.86-33.34s10.36,79.85,11.74,81.61,4,3.51,3.73,5.7-12.71-7.46-12.02-5.7,4.83,4.16,4.14,6.03-13.81-4.27-13.12-2.96-.69,7.46-1.38,5.7-5.36-7.75-5.36-7.75c0,0-.97-14.07-1.53-23.35-.29-4.84-.48-8.38-.36-7.93.35,1.3,1.04-24.15,1.04-24.15"/>
    <path class="cls-4" d="M53,65.5S33.5,2.17,81,20.33c47.5,18.17,34.5-11.83,58-3.33s6.5,48.5,6.5,48.5c0,0,15,13.92,5,22.96-10,9.04-126,22.04-97.5-22.96Z"/>
    <path class="cls-9" d="M150.5,29.5S139.21-1.74,113.24,4.38c-19.28,4.54-41.76.76-55.11,14.04-2.53-2.05-7.18-4.49-15.65-6.05-16.93-3.13-20.3,1.41-20.3,1.41l25.42,5.45c-2.47.12-5.37.49-8.81,1.24-16.8,3.68-17.91,9.12-17.91,9.12l33.29-6.3c-2.71,4.14-3.35,6.42-4.68,13.21l101-7Z"/>
    <circle class="cls-2" cx="73" cy="50" r="12.5"/>
    <circle class="cls-1" cx="73" cy="50" r="8.5"/>
    <circle class="cls-2" cx="125" cy="50" r="12.5"/>
    <circle class="cls-1" cx="125" cy="50" r="8.5"/>
    <path class="cls-5" d="M60.5,68.83s26,7.67,7,17.67"/>
    <path class="cls-5" d="M74.45,76.83s43.05-7.33,54.05-1.33-18,3-18,3"/>
    <g>
      <path class="cls-10" d="M38,161.05l34.22,2s7.28-37.55,5.78-40.05-37.5-8.5-37.5-6.5-5,19.09-2.5,44.55Z"/>
      <line class="cls-6" x1="49" y1="116" x2="44.5" y2="161.42"/>
      <line class="cls-6" x1="66" y1="119" x2="61.5" y2="162.42"/>
    </g>
    <g>
      <path class="cls-10" d="M57.05,127.73l36.56,1.32s7.78-24.78,6.17-26.43-40.06-5.61-40.06-4.29-5.34,12.6-2.67,29.4Z"/>
      <line class="cls-6" x1="68.8" y1="98" x2="63.99" y2="127.98"/>
      <line class="cls-6" x1="86.96" y1="99.98" x2="82.15" y2="128.64"/>
    </g>
    <g>
      <path class="cls-10" d="M138.96,163.79l33.37-7.85s-3.74-38.06-5.89-40.03-38.37,2.55-37.8,4.47.65,19.72,10.31,43.41Z"/>
      <line class="cls-6" x1="136.65" y1="117.47" x2="145.3" y2="162.3"/>
      <line class="cls-6" x1="153.8" y1="115.5" x2="161.88" y2="158.4"/>
    </g>
    <g>
      <polyline class="cls-7" points="30.5 188.5 12 150.84 15.56 80.67"/>
      <line class="cls-7" x1="2" y1="188.5" x2="12" y2="150.84"/>
    </g>
    <g>
      <polyline class="cls-7" points="168 188.5 190.07 150.84 185.83 80.67"/>
      <line class="cls-7" x1="202" y1="188.5" x2="190.07" y2="150.84"/>
    </g>
    <g>
      <path class="cls-10" d="M152.52,127.73l-37.9,1.32s-8.06-24.78-6.4-26.43,41.53-5.61,41.53-4.29,5.54,12.6,2.77,29.4Z"/>
      <line class="cls-6" x1="140.34" y1="98" x2="145.33" y2="127.98"/>
      <line class="cls-6" x1="121.52" y1="99.98" x2="126.5" y2="128.64"/>
    </g>
    <circle class="cls-3" cx="104.5" cy="159.5" r="37"/>
    <line class="cls-8" x1="180" y1="100.67" x2="145.83" y2="36.5"/>
    <line class="cls-8" x1="2.07" y1="87.72" x2="59.75" y2="43.46"/>
    <path class="cls-11" d="M.6,75.14l40.9,20.36s-7.47-20-41.5-21"/>
    <path class="cls-11" d="M160.55,97.64l46.86-25.44s-21.2-5.61-47.81,25.6"/>
  </g>
</svg>