<?xml version="1.0" encoding="UTF-8"?>
<svg xmlns="http://www.w3.org/2000/svg" viewBox="0 0 207 207">
  <defs>
    <style>
      .cls-1 {
        fill: #b3b3b3;
        stroke-width: .75px;
      }

      .cls-1, .cls-2, .cls-3, .cls-4, .cls-5, .cls-6, .cls-7, .cls-8, .cls-9, .cls-10, .cls-11 {
        stroke-miterlimit: 10;
      }

      .cls-1, .cls-5, .cls-7, .cls-10 {
        stroke: #b3b3b3;
      }

      .cls-12, .cls-13, .cls-14, .cls-15 {
        stroke-width: 0px;
      }

      .cls-12, .cls-11 {
        fill: #b2b2b2;
      }

      .cls-2, .cls-3, .cls-4, .cls-6, .cls-8, .cls-9, .cls-11 {
        stroke: #000;
      }

      .cls-2, .cls-6 {
        stroke-width: .25px;
      }

      .cls-4 {
        fill: #ff5a5a;
      }

      .cls-5, .cls-7, .cls-10 {
        fill: none;
      }

      .cls-6, .cls-15 {
        fill: #f0f1ff;
      }

      .cls-7 {
        stroke-width: .5px;
      }

      .cls-8 {
        fill: #f4cf7a;
      }

      .cls-14, .cls-9 {
        fill: #a2f9a4;
      }

      .cls-10 {
        stroke-width: 2px;
      }
    </style>
  </defs>
  <g id="Layer_1" data-name="Layer 1">
    <path class="cls-9" d="M56.5,63.5c-2,0-29,20-12,24s114.67-1,114.83,0,9.83-15,0-22.5-4.83-3.5-5.83-5.5,2-58-26-41-68-39-72,0,1,45,1,45Z"/>
    <path class="cls-9" d="M64.5,74.5c1-1,76-2,76,0"/>
    <circle class="cls-3" cx="82" cy="39" r="11.5"/>
    <circle class="cls-3" cx="127.5" cy="39.5" r="11"/>
    <path class="cls-9" d="M93.35,40.77s19.15-4.6,23.15,1.56"/>
    <path class="cls-9" d="M55.67,89.08S-8.5,135.5,20.5,167.5s166,4,166,6,23.67-44-27.17-86l-103.67,1.58Z"/>
  </g>
  <g id="legs">
    <path class="cls-9" d="M78.5,183.5s-9-111-29-76-31,76.32-30.5,79.66-10.5,5.34-8.5,7.34,8.86-.33,8.43.83,6.57,1.17,5.57,3.17,6-3.15,6-3.15l2.65,5.65,7.35-7.5s9,.05,9,.02,13.67-37.93,13.83-36.48-25.83,42.45,15.17,26.45Z"/>
    <ellipse class="cls-14" cx="76" cy="177.5" rx="8.5" ry="5"/>
  </g>
  <g id="Layer_2" data-name="Layer 2">
    <line class="cls-5" x1="19.5" y1="178.5" x2="18.5" y2="179.5"/>
    <line class="cls-5" x1="61.5" y1="119.5" x2="62.5" y2="118.5"/>
    <path class="cls-4" d="M69.5,142.5c-2,4,2,8,3,9s17-2,23,3-22,10-25,14.17-17,23.83-30,24.83S6.5,164.5,7.5,148.5s25-17,27-18c0,0,8,0,9-5,0,0,4-17,15-9s3,15,3,15"/>
    <path class="cls-3" d="M73,153.94s23.2-3.11,20.35,1.72-24.85,9.83-25.85,11.83-6,9-9,12l-3-2s1-7-5-4l-3-4,2-1-19-30s20.74-11.27,28.87-6.14"/>
    <path class="cls-8" d="M54.5,136.5c-.51-2.78,117-78,117-74,0,0-2-3,3-5s23.67-6,24.83-7,8.17,10,2.17,11-10-1.67-9.5-.83-4.5,5.83-12.5,7.83-9.17,4.85-9.17,4.85l-107.83,74.15s-6,0-8-11Z"/>
    <path class="cls-11" d="M53,138.27c.63.78,7.49,10.82,5.22,10.59s-6.63-8.61-6.92-9.7.8-1.98,1.7-.89Z"/>
    <path class="cls-12" d="M25.5,155.5c1,0,11.57-6.41,11.79-6.7s6.44,10.17,6.44,10.17l-12.23,7.54-6-11Z"/>
    <path class="cls-13" d="M35.61,154.44c-.86,1.36-1.61,9.56.39,9.56s1.23-12.11-.39-9.56Z"/>
    <path class="cls-15" d="M27.56,157.64c1.44.36,1.94-.6,1.94-.6,0,0,4.5,6.95,3.5,6.95s-1.67,1-1.67,1l-3.33-7"/>
    <path class="cls-15" d="M50.5,173.5c-1.54.36-15.27,9.61-14.89,10.06s-1.61,4.44,2.39,3.44,16.5-9.33,16.5-9.33c0,0,2.5-5.67-4-4.17Z"/>
    <circle class="cls-6" cx="39" cy="184" r="1.5"/>
    <circle class="cls-6" cx="46.5" cy="179.5" r="1.5"/>
    <circle class="cls-2" cx="50.5" cy="177.5" r=".5"/>
    <line class="cls-5" x1="171.5" y1="62.5" x2="175.5" y2="69.5"/>
    <circle class="cls-1" cx="176" cy="61" r="1.5"/>
    <circle class="cls-1" cx="180" cy="59" r="1.5"/>
    <circle class="cls-1" cx="184" cy="57" r="1.5"/>
    <circle class="cls-1" cx="188" cy="57" r="1.5"/>
    <circle class="cls-1" cx="192" cy="55" r="1.5"/>
    <circle class="cls-1" cx="197" cy="53" r="1.5"/>
    <circle class="cls-1" cx="193" cy="56" r=".5"/>
    <line class="cls-10" x1="176" y1="60" x2="176" y2="55"/>
    <line class="cls-10" x1="180" y1="58" x2="180" y2="53"/>
    <line class="cls-10" x1="184" y1="56" x2="184" y2="52"/>
    <line class="cls-10" x1="188" y1="56" x2="188" y2="52"/>
    <line class="cls-10" x1="192" y1="54" x2="193" y2="49"/>
    <line class="cls-10" x1="197" y1="52" x2="197" y2="46"/>
    <line class="cls-10" x1="194" y1="47" x2="200" y2="44"/>
    <line class="cls-10" x1="190" y1="49" x2="193" y2="49"/>
    <line class="cls-10" x1="186" y1="52" x2="190" y2="51"/>
    <line class="cls-10" x1="182" y1="52" x2="186" y2="52"/>
    <line class="cls-10" x1="176" y1="54" x2="182" y2="53"/>
    <line class="cls-10" x1="172" y1="56" x2="178" y2="53"/>
    <line class="cls-7" x1="176.5" y1="59.5" x2="28.5" y2="155.5"/>
    <line class="cls-7" x1="180.5" y1="58.5" x2="30.5" y2="157.5"/>
    <line class="cls-7" x1="185.5" y1="56.5" x2="30.5" y2="159.5"/>
    <line class="cls-7" x1="188.5" y1="56.5" x2="32.5" y2="160.5"/>
    <line class="cls-7" x1="193.5" y1="54.5" x2="30.5" y2="164.5"/>
    <line class="cls-7" x1="197.5" y1="52.5" x2="31.5" y2="165.5"/>
  </g>
  <g id="arms">
    <path class="cls-9" d="M50.9,101.78c-1.4,1.72-32.4,4.72-15.4,33.72,0,0,8,10,5,8s4,10,0,6-1.31,6.31-2.66,3.15-3.23-2.14-3.23-2.14c-41.89-38.99,13.39-55.32,13.39-55.32"/>
    <path class="cls-9" d="M177.5,106.48c0,1.02-31,10.02-38-2.98s-11-19-8-15.5,5.33,5.17,5.67,4.83-1.67-9.33-1.67-8.33,3,5,4,6-1.97-9.69-1.49-9.34,3.32,7.34,3.32,7.34l1.25.58-1.25-8.42c12.83,38.17,26.17,14.83,25.47,13.54"/>
    <path class="cls-9" d="M145.5,140.5c1,1,24-69,36-38s15,91,17,93,5.8,4,5.4,6.5-18.4-8.5-17.4-6.5,7,4.74,6,6.87-20-4.87-19-3.37-1,8.5-2,6.5-7.76-8.83-7.76-8.83c0,0-1.4-16.03-2.22-26.6-.43-5.52-.69-9.55-.52-9.04.5,1.48,1.5-27.52,1.5-27.52"/>
  </g>
</svg>