<?xml version="1.0" encoding="UTF-8"?>
<svg xmlns="http://www.w3.org/2000/svg" viewBox="0 0 207 207">
  <defs>
    <style>
      .cls-1 {
        fill: #000;
      }

      .cls-1, .cls-2, .cls-3, .cls-4 {
        stroke: #000;
        stroke-miterlimit: 10;
      }

      .cls-2 {
        fill: #fff;
      }

      .cls-3 {
        fill: #b7b7b7;
      }

      .cls-4 {
        fill: #627a32;
      }
    </style>
  </defs>
  <g id="Layer_1" data-name="Layer 1">
    <path class="cls-4" d="M64.9,64.45c-1.69,0-24.56,19.98-10.16,23.98s97.13-1,97.27,0,8.33-14.99,0-22.48c-8.33-7.49-4.09-3.5-4.94-5.5s6.07-48.81-22.02-40.96c-21.54,6.01-62.15-22.95-65.54,16.01s5.4,28.95,5.4,28.95Z"/>
    <path class="cls-4" d="M64.5,74.5c1-1,76-2,76,0"/>
    <circle class="cls-2" cx="82" cy="39" r="11.5"/>
    <circle class="cls-2" cx="127.5" cy="39.5" r="11"/>
    <path class="cls-4" d="M67.65,89.08s-49.11,46.42-26.92,78.42,127.05,4,127.05,6,18.11-44-20.79-86l-79.35,1.58Z"/>
  </g>
  <g id="legs">
    <path class="cls-4" d="M78.5,183.5s-9-111-29-76-31,76.32-30.5,79.66-10.5,5.34-8.5,7.34,8.86-.33,8.43.83,6.57,1.17,5.57,3.17,6-3.15,6-3.15l2.65,5.65,7.35-7.5s9,.05,9,.02,13.67-37.93,13.83-36.48-25.83,42.45,15.17,26.45Z"/>
  </g>
  <g id="arms">
    <path class="cls-4" d="M162.5,133.5s-1,29-1.5,27.52c-.17-.51.1,3.52.52,9.04.82,10.57,2.22,26.6,2.22,26.6,0,0,6.76,6.83,7.76,8.83s3-5,2-6.5,18,5.5,19,3.37-5-4.87-6-6.87,17,9,17.4,6.5-3.4-4.5-5.4-6.5-5-62-17-93-35,39-36,38"/>
    <circle class="cls-1" cx="82" cy="39" r="8.5"/>
    <circle class="cls-1" cx="128" cy="39" r="8.5"/>
    <polygon class="cls-2" points="29.85 119 182.5 119 186.5 124.23 22.43 124.23 29.85 119"/>
    <polygon class="cls-1" points="22.43 131.02 185.5 129.66 186.5 124.23 22.43 124.23 22.43 131.02"/>
    <rect class="cls-1" x="27.1" y="131.02" width="8.69" height="69.98"/>
    <rect class="cls-1" x="171.1" y="131.02" width="8.69" height="69.98"/>
    <path class="cls-4" d="M68.9,94.37c-1.4,1.09-32.4,2.99-15.4,21.38,0,0,8,6.34,5,5.07s4,6.34,0,3.8-1.31,4-2.66,2-3.23-1.36-3.23-1.36c-41.89-24.71,13.39-35.07,13.39-35.07"/>
    <path class="cls-4" d="M142.98,89.19c.46-.91,32.18,5.1,32.53,19.86.36,14.76,1.21,21.92.12,17.44-1.09-4.48-2.42-7.02-2.86-6.87s-2.74,9.08-2.29,8.19-.41-5.82-.85-7.16-2.63,9.53-2.9,9,.36-8.05.36-8.05l-.85-1.09-2.7,8.07c5.83-39.84-16.62-25.07-16.58-23.61"/>
    <line class="cls-2" x1="63.88" y1="124.58" x2="64.12" y2="121.42"/>
    <line class="cls-2" x1="68.88" y1="124.58" x2="69.12" y2="121.42"/>
    <line class="cls-2" x1="74.88" y1="124.58" x2="75.12" y2="121.42"/>
    <line class="cls-2" x1="32.88" y1="124.58" x2="33.12" y2="121.42"/>
    <line class="cls-2" x1="37.88" y1="124.58" x2="38.12" y2="121.42"/>
    <line class="cls-2" x1="43.88" y1="124.58" x2="44.12" y2="121.42"/>
    <line class="cls-2" x1="79.88" y1="124.58" x2="80.12" y2="121.42"/>
    <line class="cls-2" x1="83.88" y1="124.58" x2="84.12" y2="121.42"/>
    <line class="cls-2" x1="88.88" y1="124.58" x2="89.12" y2="121.42"/>
    <line class="cls-2" x1="93.88" y1="124.58" x2="94.12" y2="121.42"/>
    <line class="cls-2" x1="98.88" y1="124.58" x2="99.12" y2="121.42"/>
    <line class="cls-2" x1="103.88" y1="124.58" x2="104.12" y2="121.42"/>
    <line class="cls-2" x1="108.88" y1="124.58" x2="109.12" y2="121.42"/>
    <line class="cls-2" x1="113.88" y1="124.58" x2="114.12" y2="121.42"/>
    <line class="cls-2" x1="117.88" y1="124.58" x2="118.12" y2="121.42"/>
    <line class="cls-2" x1="122.88" y1="124.58" x2="123.12" y2="121.42"/>
    <line class="cls-2" x1="127.88" y1="124.58" x2="128.12" y2="121.42"/>
    <line class="cls-2" x1="132.88" y1="124.58" x2="133.12" y2="121.42"/>
    <line class="cls-2" x1="137.88" y1="124.58" x2="138.12" y2="121.42"/>
    <line class="cls-2" x1="142.88" y1="124.58" x2="143.12" y2="121.42"/>
    <line class="cls-2" x1="142.88" y1="124.58" x2="143.12" y2="121.42"/>
    <line class="cls-2" x1="146.88" y1="124.58" x2="147.12" y2="121.42"/>
    <line class="cls-2" x1="151.88" y1="124.58" x2="152.12" y2="121.42"/>
    <line class="cls-2" x1="156.88" y1="124.58" x2="157.12" y2="121.42"/>
    <line class="cls-2" x1="161.88" y1="124.58" x2="162.12" y2="121.42"/>
    <line class="cls-2" x1="166.88" y1="124.58" x2="167.12" y2="121.42"/>
    <line class="cls-2" x1="171.88" y1="124.58" x2="172.12" y2="121.42"/>
    <path class="cls-3" d="M62.3,23.87c.55,1.96,86.16,6.63,82.59,3.63-.38-.32.62-4.64-1.27-5-15.88-2.99-80.58-3-80.58-3,0,0-1.46,1.74-.73,4.37Z"/>
    <path class="cls-3" d="M75.38,6.5s27.66-14,51.64,2c23.98,16,15.64,15.44,15.64,15.44l-79.27-4.44s2.77-9,11.99-13Z"/>
  </g>
</svg>